<svg xmlns="http://www.w3.org/2000/svg" version="1.1" viewBox="-5.0 -10.0 110.0 135.0">
 <path d="m42.773 82.227 7.2969-1.8242-5.4727-5.4727z" fill-rule="evenodd"/>
 <path d="m50.648 76.562 2.4766 2.4766 29.039-29.039-2.4766-2.4766z" fill-rule="evenodd"/>
 <path d="m45.961 71.875 2.4766 2.4766 29.039-29.039-2.4766-2.4766z" fill-rule="evenodd"/>
 <path d="m84.375 47.789-7.1641-7.1641 7.6211-7.625c0.29297-0.28906 0.69141-0.45703 1.1055-0.45703s0.8125 0.16797 1.1055 0.45703l4.957 4.957c0.28906 0.29297 0.45703 0.69141 0.45703 1.1055s-0.16797 0.8125-0.45703 1.1055z" fill-rule="evenodd"/>
 <path d="m79.688 33.727v-21.227c0-2.5898-2.0977-4.6875-4.6875-4.6875h-62.5c-2.5898 0-4.6875 2.0977-4.6875 4.6875v75c0 2.5898 2.0977 4.6875 4.6875 4.6875h62.5c2.5898 0 4.6875-2.0977 4.6875-4.6875v-30.602l-24.844 24.844c-0.60156 0.60156-1.3555 1.0273-2.1797 1.2344-2.8047 0.69922-11.66 2.9141-11.66 2.9141-0.53125 0.13281-1.0977-0.023437-1.4844-0.41016s-0.54297-0.95312-0.41016-1.4844c0 0 2.2148-8.8555 2.9141-11.66 0.20703-0.82422 0.63281-1.5781 1.2344-2.1797zm-43.75 31.898c0-0.86328-0.69922-1.5625-1.5625-1.5625h-18.75c-0.86328 0-1.5625 0.69922-1.5625 1.5625v18.75c0 0.86328 0.69922 1.5625 1.5625 1.5625h18.75c0.86328 0 1.5625-0.69922 1.5625-1.5625zm-3.125 1.5625v15.625h-15.625v-15.625zm-9.375-14.062c0-0.86328-0.69922-1.5625-1.5625-1.5625h-6.25c-0.86328 0-1.5625 0.69922-1.5625 1.5625v6.25c0 0.86328 0.69922 1.5625 1.5625 1.5625h6.25c0.86328 0 1.5625-0.69922 1.5625-1.5625zm4.6875 7.8125h18.75c0.86328 0 1.5625-0.69922 1.5625-1.5625s-0.69922-1.5625-1.5625-1.5625h-18.75c-0.86328 0-1.5625 0.69922-1.5625 1.5625s0.69922 1.5625 1.5625 1.5625zm-7.8125-6.25v3.125h-3.125v-3.125zm7.8125 0h6.25c0.86328 0 1.5625-0.69922 1.5625-1.5625s-0.69922-1.5625-1.5625-1.5625h-6.25c-0.86328 0-1.5625 0.69922-1.5625 1.5625s0.69922 1.5625 1.5625 1.5625zm12.5 0h12.5c0.86328 0 1.5625-0.69922 1.5625-1.5625s-0.69922-1.5625-1.5625-1.5625h-12.5c-0.86328 0-1.5625 0.69922-1.5625 1.5625s0.69922 1.5625 1.5625 1.5625zm-17.188-14.062c0-0.86328-0.69922-1.5625-1.5625-1.5625h-6.25c-0.86328 0-1.5625 0.69922-1.5625 1.5625v6.25c0 0.86328 0.69922 1.5625 1.5625 1.5625h6.25c0.86328 0 1.5625-0.69922 1.5625-1.5625zm4.6875 7.8125h31.25c0.86328 0 1.5625-0.69922 1.5625-1.5625s-0.69922-1.5625-1.5625-1.5625h-31.25c-0.86328 0-1.5625 0.69922-1.5625 1.5625s0.69922 1.5625 1.5625 1.5625zm-7.8125-6.25v3.125h-3.125v-3.125zm45.312-3.125h-6.25c-0.86328 0-1.5625 0.69922-1.5625 1.5625s0.69922 1.5625 1.5625 1.5625h6.25c0.86328 0 1.5625-0.69922 1.5625-1.5625s-0.69922-1.5625-1.5625-1.5625zm-37.5 3.125h25c0.86328 0 1.5625-0.69922 1.5625-1.5625s-0.69922-1.5625-1.5625-1.5625h-25c-0.86328 0-1.5625 0.69922-1.5625 1.5625s0.69922 1.5625 1.5625 1.5625zm-4.6875-14.062c0-0.86328-0.69922-1.5625-1.5625-1.5625h-6.25c-0.86328 0-1.5625 0.69922-1.5625 1.5625v6.25c0 0.86328 0.69922 1.5625 1.5625 1.5625h6.25c0.86328 0 1.5625-0.69922 1.5625-1.5625zm4.6875 7.8125h43.75c0.86328 0 1.5625-0.69922 1.5625-1.5625s-0.69922-1.5625-1.5625-1.5625h-43.75c-0.86328 0-1.5625 0.69922-1.5625 1.5625s0.69922 1.5625 1.5625 1.5625zm-7.8125-6.25v3.125h-3.125v-3.125zm7.8125 0h12.5c0.86328 0 1.5625-0.69922 1.5625-1.5625s-0.69922-1.5625-1.5625-1.5625h-12.5c-0.86328 0-1.5625 0.69922-1.5625 1.5625s0.69922 1.5625 1.5625 1.5625zm18.75 0h25c0.86328 0 1.5625-0.69922 1.5625-1.5625s-0.69922-1.5625-1.5625-1.5625h-25c-0.86328 0-1.5625 0.69922-1.5625 1.5625s0.69922 1.5625 1.5625 1.5625zm26.562-14.062c0-0.86328-0.69922-1.5625-1.5625-1.5625h-56.25c-0.86328 0-1.5625 0.69922-1.5625 1.5625v6.25c0 0.86328 0.69922 1.5625 1.5625 1.5625h56.25c0.86328 0 1.5625-0.69922 1.5625-1.5625zm-3.125 1.5625v3.125h-53.125v-3.125z" fill-rule="evenodd"/>
<text x="0.0" y="117.5" font-size="5.0" font-weight="bold" font-family="Arbeit Regular, Helvetica, Arial-Unicode, Arial, Sans-serif" fill="#000000">Created by Mada Creative</text><text x="0.0" y="122.5" font-size="5.0" font-weight="bold" font-family="Arbeit Regular, Helvetica, Arial-Unicode, Arial, Sans-serif" fill="#000000">from Noun Project</text></svg>